HIERARCHY
ROOT Hips
{
	OFFSET 0.00000 0.00000 0.00000
	CHANNELS 6 Xposition Yposition Zposition Zrotation Yrotation Xrotation 
	JOINT LHipJoint
	{
		OFFSET 0 0 0
		CHANNELS 3 Zrotation Yrotation Xrotation
		JOINT LeftHip
		{
			OFFSET 1.62067 -1.77917 0.70989
			CHANNELS 3 Zrotation Yrotation Xrotation
			JOINT LeftKnee
			{
				OFFSET 2.34532 -6.44371 0.00000
				CHANNELS 3 Zrotation Yrotation Xrotation
				JOINT LeftAnkle
				{
					OFFSET 2.74224 -7.53425 0.00000
					CHANNELS 3 Zrotation Yrotation Xrotation
					JOINT LeftToe
					{
						OFFSET 0.17032 -0.46794 2.08086
						CHANNELS 3 Zrotation Yrotation Xrotation
						End Site
						{
							OFFSET 0.00000 -0.00000 1.07476
						}
					}
				}
			}
		}
	}
	JOINT RHipJoint
	{
		OFFSET 0 0 0
		CHANNELS 3 Zrotation Yrotation Xrotation
		JOINT RightHip
		{
			OFFSET -1.55811 -1.77917 0.70989
			CHANNELS 3 Zrotation Yrotation Xrotation
			JOINT RightKnee
			{
				OFFSET -2.33243 -6.40830 0.00000
				CHANNELS 3 Zrotation Yrotation Xrotation
				JOINT RightAnkle
				{
					OFFSET -2.78798 -7.65993 0.00000
					CHANNELS 3 Zrotation Yrotation Xrotation
					JOINT RightToe
					{
						OFFSET -0.22707 -0.62388 2.04059
						CHANNELS 3 Zrotation Yrotation Xrotation
						End Site
						{
							OFFSET -0.00000 -0.00000 1.07030
						}
					}
				}
			}
		}
	}
	JOINT lowerback
	{
		OFFSET 0 0 0
		CHANNELS 3 Zrotation Yrotation Xrotation
		JOINT Chest
		{
			OFFSET 0.02203 1.91565 0.07161
			CHANNELS 3 Zrotation Yrotation Xrotation
			JOINT Chest2
			{
				OFFSET 0.01740 1.90525 0.11636
				CHANNELS 3 Zrotation Yrotation Xrotation
				JOINT lowerneck
				{
					OFFSET 0 0 0
					CHANNELS 3 Zrotation Yrotation Xrotation
					JOINT Neck
					{
						OFFSET -0.10841 1.83566 0.05067
						CHANNELS 3 Zrotation Yrotation Xrotation
						JOINT Head
						{
							OFFSET 0.06601 1.74760 -0.50505
							CHANNELS 3 Zrotation Yrotation Xrotation
							End Site
							{
								OFFSET 0.03102 1.85215 -0.17697
							}
						}
					}
				}
				JOINT LeftCollar
				{
					OFFSET 0 0 0
					CHANNELS 3 Zrotation Yrotation Xrotation
					JOINT LeftShoulder
					{
						OFFSET 2.87059 1.35470 0.16111
CHANNELS 3 Zrotation Xrotation Yrotation
						JOINT LeftElbow
						{
OFFSET 0 -5.435920 0.000000
CHANNELS 3 Zrotation Xrotation Yrotation
							JOINT LeftWrist
							{
OFFSET 0 -3.254600 0.000000
CHANNELS 3 Zrotation Xrotation Yrotation
								JOINT lhand
								{
									OFFSET 0 0 0
CHANNELS 3 Zrotation Xrotation Yrotation
									JOINT LFingers
									{
OFFSET 0 -0.498240 0.000000
CHANNELS 3 Zrotation Xrotation Yrotation
										End Site
										{
OFFSET 0 -0.401700 0.000000
										}
									}
								}
								JOINT LThumb
								{
OFFSET 0 0.000000 0.000000
CHANNELS 3 Zrotation Xrotation Yrotation
									End Site
									{
OFFSET 0 -0.407830 0.407830
									}
								}
							}
						}
					}
				}
				JOINT RightCollar
				{
					OFFSET 0 0 0
					CHANNELS 3 Zrotation Yrotation Xrotation
					JOINT RightShoulder
					{
						OFFSET -2.86643 1.23488 0.45957
CHANNELS 3 Zrotation Xrotation Yrotation
						JOINT RightElbow
						{
OFFSET 0 -5.338300 0.000000
CHANNELS 3 Zrotation Xrotation Yrotation
							JOINT RightWrist
							{
OFFSET 0 -3.231480 0.000000
CHANNELS 3 Zrotation Xrotation Yrotation
								JOINT rhand
								{
									OFFSET 0 0 0
CHANNELS 3 Zrotation Xrotation Yrotation
									JOINT RFingers
									{
OFFSET 0 -0.463640 0.000000
CHANNELS 3 Zrotation Xrotation Yrotation
										End Site
										{
OFFSET 0 -0.373800 0.000000
										}
									}
								}
								JOINT RThumb
								{
OFFSET 0 0.000000 0.000000
CHANNELS 3 Zrotation Xrotation Yrotation
									End Site
									{
OFFSET 0 -0.379510 0.379510
									}
								}
							}
						}
					}
				}
			}
		}
	}
}
MOTION
Frames: 6
Frame Time: 0.008333333333333333
0.905200 15.841700 -43.935100 -0.103000 4.521900 24.018100 0.000000 0.000000 0.000000 -24.255400 -9.894700 -18.651000 4.827100 13.186400 40.070300 4.256000 7.983400 -42.204600 0.192200 -2.823300 -7.787300 0.000000 0.000000 0.000000 9.539200 16.308900 -72.703300 -15.139500 -19.423900 75.656700 -0.545600 -4.462700 -16.297500 -0.487000 4.474600 -12.415700 -0.217100 -2.948500 -1.988300 2.183100 -3.918500 -2.504300 2.322700 -1.942700 -1.288200 -7.733600 -2.778200 -13.008600 6.852300 -2.971100 4.384400 3.149900 -1.268000 3.629800 0.000000 -0.000000 0.000000 4.378400 -6.882200 -53.034300 30.398700 -41.232700 11.671500 37.111400 -26.381300 23.772300 0.000000 0.000000 0.000000 -7.125000 0.000000 0.000000 4.742000 1.152800 4.661800 0.000000 -0.000000 0.000000 -5.467400 15.170900 27.861700 -23.001800 -34.090800 -7.139300 -37.472600 29.621900 42.894500 0.000000 0.000000 0.000000 7.125000 0.000000 -0.000000 0.360900 79.474800 -0.288900
0.896728 15.831349 -43.884850 -0.035638 4.514095 24.055120 0.000000 0.000000 0.000000 -24.264039 -9.715985 -18.530132 4.818335 13.176216 40.031777 4.251952 7.774093 -42.091787 0.215113 -2.980020 -8.223694 0.000000 0.000000 0.000000 9.541495 16.345503 -72.680888 -15.220260 -19.442973 75.899187 -0.579198 -4.050054 -16.428301 -0.510497 4.577981 -12.708897 -0.323193 -2.946914 -2.068976 2.127883 -3.916330 -2.506345 2.320571 -1.940822 -1.242040 -7.642156 -2.736255 -12.615820 6.880472 -2.946935 4.069709 3.148064 -1.259945 3.468990 0.000000 0.000000 0.000000 4.576313 -6.916090 -53.230043 30.777665 -41.547725 11.923169 37.051342 -27.138854 24.348510 0.000000 0.000000 0.000000 -7.125000 0.000000 0.000000 4.589204 0.511189 4.560089 0.000000 0.000000 0.000000 -5.327041 15.225950 27.719588 -23.093202 -34.190383 -7.190677 -37.713543 29.350322 41.844959 0.000000 0.000000 0.000000 7.125000 0.000000 0.000000 -1.633799 78.504015 1.219906
0.888255 15.820999 -43.834599 0.031725 4.506291 24.092140 0.000000 0.000000 0.000000 -24.272679 -9.537271 -18.409264 4.809571 13.166033 39.993255 4.247903 7.564786 -41.978974 0.238026 -3.136739 -8.660088 0.000000 0.000000 0.000000 9.543791 16.382105 -72.658475 -15.301019 -19.462047 76.141675 -0.612795 -3.637408 -16.559103 -0.533995 4.681361 -13.002094 -0.429287 -2.945328 -2.149652 2.072666 -3.914159 -2.508390 2.318443 -1.938944 -1.195879 -7.550712 -2.694310 -12.223041 6.908644 -2.922769 3.755018 3.146227 -1.251890 3.308181 0.000000 0.000000 0.000000 4.774226 -6.949980 -53.425786 31.156630 -41.862750 12.174839 36.991283 -27.896409 24.924721 0.000000 0.000000 0.000000 -7.125000 0.000000 0.000000 4.436407 -0.130422 4.458378 0.000000 0.000000 0.000000 -5.186682 15.281000 27.577476 -23.184605 -34.289965 -7.242055 -37.954486 29.078745 40.795418 0.000000 0.000000 0.000000 7.125000 0.000000 0.000000 -3.628499 77.533231 2.728713
0.881875 15.813068 -43.779887 0.047283 4.523569 24.118043 0.000000 0.000000 0.000000 -24.229212 -9.370379 -18.240020 4.800655 13.155673 39.954102 4.238082 7.411316 -41.866111 0.271603 -3.342842 -9.235785 0.000000 0.000000 0.000000 9.625670 16.386088 -72.590612 -15.380922 -19.480415 76.381339 -0.649267 -3.171950 -16.705937 -0.528780 4.658472 -12.937202 -0.444604 -2.978555 -2.126847 2.073009 -3.958096 -2.530930 2.328944 -1.960384 -1.228874 -7.559699 -2.648886 -12.117438 6.931346 -2.865278 3.638215 3.159390 -1.224273 3.252138 0.000000 0.000000 0.000000 4.885598 -6.961257 -53.484847 31.527982 -42.165549 12.423559 37.043126 -28.649400 25.466925 0.000000 0.000000 0.000000 -7.125000 0.000000 0.000000 4.353691 -0.764949 4.423495 0.000000 0.000000 0.000000 -5.176375 15.336252 27.600103 -23.310417 -34.426101 -7.313195 -38.108813 28.926429 40.127360 0.000000 0.000000 0.000000 7.125000 0.000000 0.000000 -4.784909 76.908612 3.572842
0.876867 15.806724 -43.722249 0.028877 4.557291 24.136657 0.000000 0.000000 0.000000 -24.151582 -9.211239 -18.039060 4.791640 13.145197 39.914536 4.224476 7.294454 -41.753214 0.312170 -3.581323 -9.902814 0.000000 0.000000 0.000000 9.759727 16.368684 -72.492949 -15.460262 -19.498319 76.619152 -0.687622 -2.671866 -16.863282 -0.504740 4.552795 -12.637536 -0.400405 -3.034607 -2.036196 2.109778 -4.032261 -2.566907 2.347725 -1.997112 -1.313766 -7.634532 -2.601182 -12.200118 6.950461 -2.785938 3.651153 3.182387 -1.183830 3.264784 0.000000 0.000000 0.000000 4.940231 -6.957710 -53.454296 31.894342 -42.460332 12.670345 37.168335 -29.399400 25.986833 0.000000 0.000000 0.000000 -7.125000 0.000000 0.000000 4.316922 -1.394833 4.432426 0.000000 0.000000 0.000000 -5.251333 15.391636 27.730738 -23.458789 -34.586201 -7.397294 -38.206350 28.852306 39.709414 0.000000 0.000000 0.000000 7.125000 0.000000 0.000000 -5.391712 76.510949 3.981189
0.871580 15.800875 -43.664064 -0.000675 4.605616 24.165264 0.000000 0.000000 0.000000 -24.050601 -9.045657 -17.857928 4.783866 13.136171 39.880431 4.205531 7.176733 -41.615854 0.361419 -3.852193 -10.662487 0.000000 0.000000 0.000000 9.911380 16.348953 -72.396146 -15.539134 -19.515972 76.855463 -0.724303 -2.174083 -17.009134 -0.477618 4.430382 -12.290948 -0.330927 -3.101788 -1.925673 2.152703 -4.120655 -2.629196 2.361280 -2.041010 -1.437714 -7.721927 -2.548981 -12.276321 6.970670 -2.700234 3.693937 3.208283 -1.140549 3.285087 0.000000 0.000000 0.000000 4.991348 -6.903959 -53.391495 32.273890 -42.763266 12.926872 37.284272 -30.108738 26.468405 0.000000 0.000000 0.000000 -7.125000 0.000000 0.000000 4.282218 -1.977994 4.439648 0.000000 0.000000 0.000000 -5.344565 15.490669 27.900871 -23.618516 -34.757916 -7.488094 -38.265995 28.791065 39.402039 0.000000 0.000000 0.000000 7.125000 0.000000 0.000000 -5.813780 76.214352 4.263660
